<mxfile host="app.diagrams.net" modified="2021-01-23T10:42:21.834Z" agent="5.0 (Windows NT 10.0; Win64; x64) AppleWebKit/537.36 (KHTML, like Gecko) Chrome/87.0.4280.141 Safari/537.36" etag="7IhpeqNm-Y6TB3DGmk4S" version="14.2.6" type="github">
  <diagram id="0sy5LNUqnLt38G_ARiGn" name="Page-1">
    <mxGraphModel dx="848" dy="1262" grid="1" gridSize="10" guides="1" tooltips="1" connect="1" arrows="1" fold="1" page="1" pageScale="1" pageWidth="583" pageHeight="827" math="0" shadow="0">
      <root>
        <mxCell id="0" />
        <mxCell id="1" parent="0" />
        <mxCell id="LJ6ic7p3RvikOZII2ErR-3" value="" style="edgeStyle=orthogonalEdgeStyle;rounded=0;orthogonalLoop=1;jettySize=auto;html=1;fontStyle=1;fontSize=15;startArrow=classic;startFill=1;spacing=2;" edge="1" parent="1" source="LJ6ic7p3RvikOZII2ErR-1" target="LJ6ic7p3RvikOZII2ErR-2">
          <mxGeometry relative="1" as="geometry">
            <Array as="points">
              <mxPoint x="106" y="180" />
            </Array>
          </mxGeometry>
        </mxCell>
        <mxCell id="LJ6ic7p3RvikOZII2ErR-106" value="新規登録" style="edgeLabel;html=1;align=center;verticalAlign=middle;resizable=0;points=[];fontSize=15;fontStyle=1;spacing=2;" vertex="1" connectable="0" parent="LJ6ic7p3RvikOZII2ErR-3">
          <mxGeometry x="0.2875" y="1" relative="1" as="geometry">
            <mxPoint as="offset" />
          </mxGeometry>
        </mxCell>
        <mxCell id="LJ6ic7p3RvikOZII2ErR-5" value="" style="edgeStyle=orthogonalEdgeStyle;rounded=0;orthogonalLoop=1;jettySize=auto;html=1;fontStyle=1;fontSize=15;startArrow=classic;startFill=1;spacing=2;" edge="1" parent="1" source="LJ6ic7p3RvikOZII2ErR-1" target="LJ6ic7p3RvikOZII2ErR-4">
          <mxGeometry relative="1" as="geometry" />
        </mxCell>
        <mxCell id="LJ6ic7p3RvikOZII2ErR-105" value="ログイン" style="edgeLabel;html=1;align=center;verticalAlign=middle;resizable=0;points=[];fontSize=15;fontStyle=1;spacing=2;" vertex="1" connectable="0" parent="LJ6ic7p3RvikOZII2ErR-5">
          <mxGeometry x="0.1917" y="2" relative="1" as="geometry">
            <mxPoint as="offset" />
          </mxGeometry>
        </mxCell>
        <mxCell id="LJ6ic7p3RvikOZII2ErR-8" value="" style="edgeStyle=orthogonalEdgeStyle;rounded=0;orthogonalLoop=1;jettySize=auto;html=1;fontStyle=1;fontSize=15;spacing=2;" edge="1" parent="1" source="LJ6ic7p3RvikOZII2ErR-1" target="LJ6ic7p3RvikOZII2ErR-7">
          <mxGeometry relative="1" as="geometry">
            <Array as="points">
              <mxPoint x="486" y="190" />
            </Array>
          </mxGeometry>
        </mxCell>
        <mxCell id="LJ6ic7p3RvikOZII2ErR-64" value="マッチング開始" style="edgeLabel;html=1;align=center;verticalAlign=middle;resizable=0;points=[];fontSize=15;fontStyle=1;spacing=2;" vertex="1" connectable="0" parent="LJ6ic7p3RvikOZII2ErR-8">
          <mxGeometry x="-0.0302" y="-2" relative="1" as="geometry">
            <mxPoint as="offset" />
          </mxGeometry>
        </mxCell>
        <mxCell id="LJ6ic7p3RvikOZII2ErR-111" value="" style="edgeStyle=orthogonalEdgeStyle;rounded=0;orthogonalLoop=1;jettySize=auto;html=1;startArrow=classic;startFill=1;fontSize=15;spacing=2;" edge="1" parent="1" source="LJ6ic7p3RvikOZII2ErR-1" target="LJ6ic7p3RvikOZII2ErR-110">
          <mxGeometry relative="1" as="geometry">
            <Array as="points">
              <mxPoint x="57" y="200" />
            </Array>
          </mxGeometry>
        </mxCell>
        <mxCell id="LJ6ic7p3RvikOZII2ErR-112" value="ログアウト" style="edgeLabel;html=1;align=center;verticalAlign=middle;resizable=0;points=[];fontSize=15;fontStyle=1;spacing=2;" vertex="1" connectable="0" parent="LJ6ic7p3RvikOZII2ErR-111">
          <mxGeometry x="0.3973" relative="1" as="geometry">
            <mxPoint as="offset" />
          </mxGeometry>
        </mxCell>
        <mxCell id="LJ6ic7p3RvikOZII2ErR-1" value="top.php" style="rounded=1;whiteSpace=wrap;html=1;fontStyle=1;fontSize=15;fillColor=#f8cecc;strokeColor=#b85450;spacing=2;" vertex="1" parent="1">
          <mxGeometry x="197" y="160" width="120" height="60" as="geometry" />
        </mxCell>
        <mxCell id="LJ6ic7p3RvikOZII2ErR-2" value="newac_form.php" style="rounded=1;whiteSpace=wrap;html=1;fontStyle=1;fontSize=15;fillColor=#f8cecc;strokeColor=#b85450;spacing=2;" vertex="1" parent="1">
          <mxGeometry x="26" y="40" width="160" height="60" as="geometry" />
        </mxCell>
        <mxCell id="LJ6ic7p3RvikOZII2ErR-4" value="login_form.php" style="rounded=1;whiteSpace=wrap;html=1;fontStyle=1;fontSize=15;fillColor=#f8cecc;strokeColor=#b85450;spacing=2;" vertex="1" parent="1">
          <mxGeometry x="296" y="40" width="160" height="60" as="geometry" />
        </mxCell>
        <mxCell id="LJ6ic7p3RvikOZII2ErR-10" value="" style="edgeStyle=orthogonalEdgeStyle;rounded=0;orthogonalLoop=1;jettySize=auto;html=1;fontStyle=1;fontSize=15;spacing=2;" edge="1" parent="1" source="LJ6ic7p3RvikOZII2ErR-7" target="LJ6ic7p3RvikOZII2ErR-9">
          <mxGeometry relative="1" as="geometry">
            <Array as="points">
              <mxPoint x="546" y="90" />
              <mxPoint x="766" y="90" />
            </Array>
          </mxGeometry>
        </mxCell>
        <mxCell id="LJ6ic7p3RvikOZII2ErR-65" value="１問目の問題出題" style="edgeLabel;html=1;align=center;verticalAlign=middle;resizable=0;points=[];fontSize=15;fontStyle=1;spacing=2;" vertex="1" connectable="0" parent="LJ6ic7p3RvikOZII2ErR-10">
          <mxGeometry x="0.046" y="-2" relative="1" as="geometry">
            <mxPoint x="45.71" as="offset" />
          </mxGeometry>
        </mxCell>
        <mxCell id="LJ6ic7p3RvikOZII2ErR-12" value="" style="edgeStyle=orthogonalEdgeStyle;rounded=0;orthogonalLoop=1;jettySize=auto;html=1;fontStyle=1;fontSize=15;startArrow=classic;startFill=1;spacing=2;" edge="1" parent="1" source="LJ6ic7p3RvikOZII2ErR-7" target="LJ6ic7p3RvikOZII2ErR-11">
          <mxGeometry relative="1" as="geometry" />
        </mxCell>
        <mxCell id="LJ6ic7p3RvikOZII2ErR-109" value="&lt;b&gt;マッチング処理&lt;/b&gt;" style="edgeLabel;html=1;align=center;verticalAlign=middle;resizable=0;points=[];fontSize=15;spacing=2;" vertex="1" connectable="0" parent="LJ6ic7p3RvikOZII2ErR-12">
          <mxGeometry x="-0.2762" y="1" relative="1" as="geometry">
            <mxPoint as="offset" />
          </mxGeometry>
        </mxCell>
        <mxCell id="LJ6ic7p3RvikOZII2ErR-7" value="frontMatching.php" style="rounded=1;whiteSpace=wrap;html=1;fontStyle=1;fontSize=15;spacing=2;" vertex="1" parent="1">
          <mxGeometry x="416" y="250" width="160" height="60" as="geometry" />
        </mxCell>
        <mxCell id="LJ6ic7p3RvikOZII2ErR-9" value="drawing.php" style="rounded=1;whiteSpace=wrap;html=1;fontStyle=1;fontSize=15;spacing=2;" vertex="1" parent="1">
          <mxGeometry x="666" y="120" width="210" height="40" as="geometry" />
        </mxCell>
        <mxCell id="LJ6ic7p3RvikOZII2ErR-11" value="backMatching.php" style="rounded=1;whiteSpace=wrap;html=1;fontStyle=1;fontSize=15;fillColor=#dae8fc;strokeColor=#6c8ebf;spacing=2;" vertex="1" parent="1">
          <mxGeometry x="416" y="410" width="160" height="60" as="geometry" />
        </mxCell>
        <mxCell id="LJ6ic7p3RvikOZII2ErR-13" value="&lt;span&gt;drawing.php&lt;/span&gt;" style="rounded=1;whiteSpace=wrap;html=1;fontStyle=1;fontSize=15;spacing=2;" vertex="1" parent="1">
          <mxGeometry x="666" y="220" width="210" height="40" as="geometry" />
        </mxCell>
        <mxCell id="LJ6ic7p3RvikOZII2ErR-15" value="&lt;span&gt;drawing.php&lt;/span&gt;" style="rounded=1;whiteSpace=wrap;html=1;fontStyle=1;fontSize=15;spacing=2;" vertex="1" parent="1">
          <mxGeometry x="666" y="320" width="210" height="40" as="geometry" />
        </mxCell>
        <mxCell id="LJ6ic7p3RvikOZII2ErR-17" value="&lt;span&gt;drawing.php&lt;/span&gt;" style="rounded=1;whiteSpace=wrap;html=1;fontStyle=1;fontSize=15;spacing=2;" vertex="1" parent="1">
          <mxGeometry x="666" y="420" width="210" height="40" as="geometry" />
        </mxCell>
        <mxCell id="LJ6ic7p3RvikOZII2ErR-23" value="" style="edgeStyle=orthogonalEdgeStyle;rounded=0;orthogonalLoop=1;jettySize=auto;html=1;entryX=1;entryY=0.5;entryDx=0;entryDy=0;fontStyle=1;fontSize=15;spacing=2;" edge="1" parent="1" source="LJ6ic7p3RvikOZII2ErR-19" target="LJ6ic7p3RvikOZII2ErR-24">
          <mxGeometry relative="1" as="geometry">
            <mxPoint x="770.0000000000002" y="480.0000000000002" as="sourcePoint" />
            <mxPoint x="526" y="630" as="targetPoint" />
            <Array as="points">
              <mxPoint x="771" y="600" />
            </Array>
          </mxGeometry>
        </mxCell>
        <mxCell id="LJ6ic7p3RvikOZII2ErR-75" value="問題終了" style="edgeLabel;html=1;align=center;verticalAlign=middle;resizable=0;points=[];fontSize=15;fontStyle=1;spacing=2;" vertex="1" connectable="0" parent="LJ6ic7p3RvikOZII2ErR-23">
          <mxGeometry x="0.0243" relative="1" as="geometry">
            <mxPoint as="offset" />
          </mxGeometry>
        </mxCell>
        <mxCell id="LJ6ic7p3RvikOZII2ErR-30" value="" style="edgeStyle=orthogonalEdgeStyle;rounded=0;orthogonalLoop=1;jettySize=auto;html=1;fontStyle=1;fontSize=15;spacing=2;" edge="1" parent="1" source="LJ6ic7p3RvikOZII2ErR-24" target="LJ6ic7p3RvikOZII2ErR-1">
          <mxGeometry relative="1" as="geometry">
            <mxPoint x="275" y="225" as="targetPoint" />
            <Array as="points">
              <mxPoint x="276" y="600" />
            </Array>
          </mxGeometry>
        </mxCell>
        <mxCell id="LJ6ic7p3RvikOZII2ErR-24" value="result.php" style="rounded=1;whiteSpace=wrap;html=1;fontStyle=1;fontSize=15;fillColor=#f8cecc;strokeColor=#b85450;spacing=2;" vertex="1" parent="1">
          <mxGeometry x="376" y="570" width="120" height="60" as="geometry" />
        </mxCell>
        <mxCell id="LJ6ic7p3RvikOZII2ErR-36" value="" style="edgeStyle=orthogonalEdgeStyle;rounded=0;orthogonalLoop=1;jettySize=auto;html=1;entryX=0.25;entryY=1;entryDx=0;entryDy=0;fontStyle=1;fontSize=15;spacing=2;" edge="1" parent="1" source="LJ6ic7p3RvikOZII2ErR-33" target="LJ6ic7p3RvikOZII2ErR-1">
          <mxGeometry relative="1" as="geometry">
            <mxPoint x="106" y="370" as="targetPoint" />
          </mxGeometry>
        </mxCell>
        <mxCell id="LJ6ic7p3RvikOZII2ErR-113" value="トップページに戻る" style="edgeLabel;html=1;align=center;verticalAlign=middle;resizable=0;points=[];fontSize=15;fontStyle=1;spacing=2;" vertex="1" connectable="0" parent="LJ6ic7p3RvikOZII2ErR-36">
          <mxGeometry x="-0.3739" y="1" relative="1" as="geometry">
            <mxPoint x="21" y="-51.67" as="offset" />
          </mxGeometry>
        </mxCell>
        <mxCell id="LJ6ic7p3RvikOZII2ErR-33" value="ranking.php" style="rounded=1;whiteSpace=wrap;html=1;fontStyle=1;fontSize=15;fillColor=#f8cecc;strokeColor=#b85450;spacing=2;" vertex="1" parent="1">
          <mxGeometry x="166" y="630" width="120" height="60" as="geometry" />
        </mxCell>
        <mxCell id="LJ6ic7p3RvikOZII2ErR-41" value="" style="endArrow=classic;html=1;entryX=1;entryY=0.5;entryDx=0;entryDy=0;exitX=0.5;exitY=1;exitDx=0;exitDy=0;rounded=0;fontStyle=1;fontSize=15;spacing=2;" edge="1" parent="1" source="LJ6ic7p3RvikOZII2ErR-24" target="LJ6ic7p3RvikOZII2ErR-33">
          <mxGeometry width="50" height="50" relative="1" as="geometry">
            <mxPoint x="396" y="520" as="sourcePoint" />
            <mxPoint x="446" y="470" as="targetPoint" />
            <Array as="points">
              <mxPoint x="436" y="660" />
              <mxPoint x="356" y="660" />
            </Array>
          </mxGeometry>
        </mxCell>
        <mxCell id="LJ6ic7p3RvikOZII2ErR-116" value="ランキングを見る" style="edgeLabel;html=1;align=center;verticalAlign=middle;resizable=0;points=[];fontSize=15;fontStyle=1;spacing=2;" vertex="1" connectable="0" parent="LJ6ic7p3RvikOZII2ErR-41">
          <mxGeometry x="-0.0259" y="1" relative="1" as="geometry">
            <mxPoint x="1" as="offset" />
          </mxGeometry>
        </mxCell>
        <mxCell id="LJ6ic7p3RvikOZII2ErR-42" value="iniset.php" style="whiteSpace=wrap;html=1;rounded=1;fontSize=15;fontStyle=1;fillColor=#dae8fc;strokeColor=#6c8ebf;spacing=2;" vertex="1" parent="1">
          <mxGeometry x="986" y="250" width="160" height="60" as="geometry" />
        </mxCell>
        <mxCell id="LJ6ic7p3RvikOZII2ErR-48" value="changeTurn.php" style="whiteSpace=wrap;html=1;rounded=1;fontSize=15;fontStyle=1;fillColor=#dae8fc;strokeColor=#6c8ebf;spacing=2;" vertex="1" parent="1">
          <mxGeometry x="986" y="330" width="160" height="60" as="geometry" />
        </mxCell>
        <mxCell id="LJ6ic7p3RvikOZII2ErR-51" value="score.php" style="whiteSpace=wrap;html=1;rounded=1;fontSize=15;fontStyle=1;fillColor=#dae8fc;strokeColor=#6c8ebf;spacing=2;" vertex="1" parent="1">
          <mxGeometry x="986" y="407" width="160" height="60" as="geometry" />
        </mxCell>
        <mxCell id="LJ6ic7p3RvikOZII2ErR-19" value="&lt;span&gt;drawing.php&lt;/span&gt;" style="rounded=1;whiteSpace=wrap;html=1;fontStyle=1;fontSize=15;spacing=2;" vertex="1" parent="1">
          <mxGeometry x="666" y="520" width="210" height="40" as="geometry" />
        </mxCell>
        <mxCell id="LJ6ic7p3RvikOZII2ErR-68" value="" style="endArrow=classic;html=1;fontSize=15;exitX=1;exitY=0.5;exitDx=0;exitDy=0;startArrow=classic;startFill=1;entryX=0.01;entryY=0.044;entryDx=0;entryDy=0;entryPerimeter=0;fontStyle=1;spacing=2;" edge="1" parent="1" source="LJ6ic7p3RvikOZII2ErR-9" target="LJ6ic7p3RvikOZII2ErR-70">
          <mxGeometry width="50" height="50" relative="1" as="geometry">
            <mxPoint x="846" y="520" as="sourcePoint" />
            <mxPoint x="976" y="250" as="targetPoint" />
            <Array as="points" />
          </mxGeometry>
        </mxCell>
        <mxCell id="LJ6ic7p3RvikOZII2ErR-70" value="" style="rounded=1;whiteSpace=wrap;html=1;fontSize=15;fillColor=none;spacing=2;" vertex="1" parent="1">
          <mxGeometry x="966" y="230" width="200" height="260" as="geometry" />
        </mxCell>
        <mxCell id="LJ6ic7p3RvikOZII2ErR-71" value="" style="endArrow=classic;html=1;fontSize=15;exitX=1;exitY=0.5;exitDx=0;exitDy=0;startArrow=classic;startFill=1;entryX=0;entryY=0.25;entryDx=0;entryDy=0;fontStyle=1;spacing=2;" edge="1" parent="1" target="LJ6ic7p3RvikOZII2ErR-70">
          <mxGeometry width="50" height="50" relative="1" as="geometry">
            <mxPoint x="876" y="240" as="sourcePoint" />
            <mxPoint x="946" y="320" as="targetPoint" />
          </mxGeometry>
        </mxCell>
        <mxCell id="LJ6ic7p3RvikOZII2ErR-72" value="" style="endArrow=classic;html=1;fontSize=15;exitX=1;exitY=0.5;exitDx=0;exitDy=0;startArrow=classic;startFill=1;entryX=0.01;entryY=0.941;entryDx=0;entryDy=0;entryPerimeter=0;fontStyle=1;spacing=2;" edge="1" parent="1" target="LJ6ic7p3RvikOZII2ErR-70">
          <mxGeometry width="50" height="50" relative="1" as="geometry">
            <mxPoint x="876" y="540" as="sourcePoint" />
            <mxPoint x="946" y="320" as="targetPoint" />
          </mxGeometry>
        </mxCell>
        <mxCell id="LJ6ic7p3RvikOZII2ErR-73" value="" style="endArrow=classic;html=1;fontSize=15;exitX=1;exitY=0.5;exitDx=0;exitDy=0;startArrow=classic;startFill=1;entryX=0;entryY=0.5;entryDx=0;entryDy=0;fontStyle=1;spacing=2;" edge="1" parent="1" source="LJ6ic7p3RvikOZII2ErR-15" target="LJ6ic7p3RvikOZII2ErR-70">
          <mxGeometry width="50" height="50" relative="1" as="geometry">
            <mxPoint x="906" y="170" as="sourcePoint" />
            <mxPoint x="976" y="350" as="targetPoint" />
          </mxGeometry>
        </mxCell>
        <mxCell id="LJ6ic7p3RvikOZII2ErR-74" value="" style="endArrow=classic;html=1;fontSize=15;exitX=1;exitY=0.5;exitDx=0;exitDy=0;startArrow=classic;startFill=1;entryX=0;entryY=0.75;entryDx=0;entryDy=0;fontStyle=1;spacing=2;" edge="1" parent="1" target="LJ6ic7p3RvikOZII2ErR-70">
          <mxGeometry width="50" height="50" relative="1" as="geometry">
            <mxPoint x="876" y="440" as="sourcePoint" />
            <mxPoint x="946" y="320" as="targetPoint" />
          </mxGeometry>
        </mxCell>
        <mxCell id="LJ6ic7p3RvikOZII2ErR-82" value="" style="endArrow=classic;html=1;fontSize=15;fontStyle=1;spacing=2;" edge="1" parent="1">
          <mxGeometry width="50" height="50" relative="1" as="geometry">
            <mxPoint x="766" y="160" as="sourcePoint" />
            <mxPoint x="766" y="220" as="targetPoint" />
            <Array as="points" />
          </mxGeometry>
        </mxCell>
        <mxCell id="LJ6ic7p3RvikOZII2ErR-84" value="&lt;span style=&quot;color: rgba(0 , 0 , 0 , 0) ; font-family: monospace ; font-size: 0px ; background-color: rgb(248 , 249 , 250)&quot;&gt;%3CmxGraphModel%3E%3Croot%3E%3CmxCell%20id%3D%220%22%2F%3E%3CmxCell%20id%3D%221%22%20parent%3D%220%22%2F%3E%3CmxCell%20id%3D%222%22%20value%3D%22%22%20style%3D%22endArrow%3Dclassic%3Bhtml%3D1%3BfontSize%3D15%3B%22%20edge%3D%221%22%20parent%3D%221%22%3E%3CmxGeometry%20width%3D%2250%22%20height%3D%2250%22%20relative%3D%221%22%20as%3D%22geometry%22%3E%3CmxPoint%20x%3D%22930%22%20y%3D%22700.0000000000002%22%20as%3D%22sourcePoint%22%2F%3E%3CmxPoint%20x%3D%22980%22%20y%3D%22650.0000000000002%22%20as%3D%22targetPoint%22%2F%3E%3CArray%20as%3D%22points%22%3E%3CmxPoint%20x%3D%22950%22%20y%3D%22680%22%2F%3E%3C%2FArray%3E%3C%2FmxGeometry%3E%3C%2FmxCell%3E%3C%2Froot%3E%3C%2FmxGraphModel%3Edai&lt;/span&gt;" style="edgeLabel;html=1;align=center;verticalAlign=middle;resizable=0;points=[];fontSize=15;fontStyle=1;spacing=2;" vertex="1" connectable="0" parent="LJ6ic7p3RvikOZII2ErR-82">
          <mxGeometry x="0.1173" y="-2" relative="1" as="geometry">
            <mxPoint as="offset" />
          </mxGeometry>
        </mxCell>
        <mxCell id="LJ6ic7p3RvikOZII2ErR-85" value="2問目の問題出題" style="edgeLabel;html=1;align=center;verticalAlign=middle;resizable=0;points=[];fontSize=15;fontStyle=1;spacing=2;" vertex="1" connectable="0" parent="LJ6ic7p3RvikOZII2ErR-82">
          <mxGeometry x="0.0927" y="-2" relative="1" as="geometry">
            <mxPoint y="-6.67" as="offset" />
          </mxGeometry>
        </mxCell>
        <mxCell id="LJ6ic7p3RvikOZII2ErR-95" value="" style="endArrow=classic;html=1;fontSize=15;fontStyle=1;spacing=2;" edge="1" parent="1">
          <mxGeometry width="50" height="50" relative="1" as="geometry">
            <mxPoint x="768" y="260" as="sourcePoint" />
            <mxPoint x="768" y="320" as="targetPoint" />
            <Array as="points">
              <mxPoint x="768" y="280" />
            </Array>
          </mxGeometry>
        </mxCell>
        <mxCell id="LJ6ic7p3RvikOZII2ErR-96" value="&lt;span style=&quot;color: rgba(0 , 0 , 0 , 0) ; font-family: monospace ; font-size: 0px ; background-color: rgb(248 , 249 , 250)&quot;&gt;%3CmxGraphModel%3E%3Croot%3E%3CmxCell%20id%3D%220%22%2F%3E%3CmxCell%20id%3D%221%22%20parent%3D%220%22%2F%3E%3CmxCell%20id%3D%222%22%20value%3D%22%22%20style%3D%22endArrow%3Dclassic%3Bhtml%3D1%3BfontSize%3D15%3B%22%20edge%3D%221%22%20parent%3D%221%22%3E%3CmxGeometry%20width%3D%2250%22%20height%3D%2250%22%20relative%3D%221%22%20as%3D%22geometry%22%3E%3CmxPoint%20x%3D%22930%22%20y%3D%22700.0000000000002%22%20as%3D%22sourcePoint%22%2F%3E%3CmxPoint%20x%3D%22980%22%20y%3D%22650.0000000000002%22%20as%3D%22targetPoint%22%2F%3E%3CArray%20as%3D%22points%22%3E%3CmxPoint%20x%3D%22950%22%20y%3D%22680%22%2F%3E%3C%2FArray%3E%3C%2FmxGeometry%3E%3C%2FmxCell%3E%3C%2Froot%3E%3C%2FmxGraphModel%3Edai&lt;/span&gt;" style="edgeLabel;html=1;align=center;verticalAlign=middle;resizable=0;points=[];fontSize=15;fontStyle=1;spacing=2;" vertex="1" connectable="0" parent="LJ6ic7p3RvikOZII2ErR-95">
          <mxGeometry x="0.1173" y="-2" relative="1" as="geometry">
            <mxPoint as="offset" />
          </mxGeometry>
        </mxCell>
        <mxCell id="LJ6ic7p3RvikOZII2ErR-97" value="３問目の問題出題" style="edgeLabel;html=1;align=center;verticalAlign=middle;resizable=0;points=[];fontSize=15;fontStyle=1;spacing=2;" vertex="1" connectable="0" parent="LJ6ic7p3RvikOZII2ErR-95">
          <mxGeometry x="0.0927" y="-2" relative="1" as="geometry">
            <mxPoint y="-3.33" as="offset" />
          </mxGeometry>
        </mxCell>
        <mxCell id="LJ6ic7p3RvikOZII2ErR-98" value="" style="endArrow=classic;html=1;fontSize=15;fontStyle=1;spacing=2;" edge="1" parent="1">
          <mxGeometry width="50" height="50" relative="1" as="geometry">
            <mxPoint x="768" y="360" as="sourcePoint" />
            <mxPoint x="768" y="420" as="targetPoint" />
            <Array as="points">
              <mxPoint x="768" y="360" />
            </Array>
          </mxGeometry>
        </mxCell>
        <mxCell id="LJ6ic7p3RvikOZII2ErR-99" value="&lt;span style=&quot;color: rgba(0 , 0 , 0 , 0) ; font-family: monospace ; font-size: 0px ; background-color: rgb(248 , 249 , 250)&quot;&gt;%3CmxGraphModel%3E%3Croot%3E%3CmxCell%20id%3D%220%22%2F%3E%3CmxCell%20id%3D%221%22%20parent%3D%220%22%2F%3E%3CmxCell%20id%3D%222%22%20value%3D%22%22%20style%3D%22endArrow%3Dclassic%3Bhtml%3D1%3BfontSize%3D15%3B%22%20edge%3D%221%22%20parent%3D%221%22%3E%3CmxGeometry%20width%3D%2250%22%20height%3D%2250%22%20relative%3D%221%22%20as%3D%22geometry%22%3E%3CmxPoint%20x%3D%22930%22%20y%3D%22700.0000000000002%22%20as%3D%22sourcePoint%22%2F%3E%3CmxPoint%20x%3D%22980%22%20y%3D%22650.0000000000002%22%20as%3D%22targetPoint%22%2F%3E%3CArray%20as%3D%22points%22%3E%3CmxPoint%20x%3D%22950%22%20y%3D%22680%22%2F%3E%3C%2FArray%3E%3C%2FmxGeometry%3E%3C%2FmxCell%3E%3C%2Froot%3E%3C%2FmxGraphModel%3Edai&lt;/span&gt;" style="edgeLabel;html=1;align=center;verticalAlign=middle;resizable=0;points=[];fontSize=15;fontStyle=1;spacing=2;" vertex="1" connectable="0" parent="LJ6ic7p3RvikOZII2ErR-98">
          <mxGeometry x="0.1173" y="-2" relative="1" as="geometry">
            <mxPoint as="offset" />
          </mxGeometry>
        </mxCell>
        <mxCell id="LJ6ic7p3RvikOZII2ErR-100" value="４問目の問題出題" style="edgeLabel;html=1;align=center;verticalAlign=middle;resizable=0;points=[];fontSize=15;fontStyle=1;spacing=2;" vertex="1" connectable="0" parent="LJ6ic7p3RvikOZII2ErR-98">
          <mxGeometry x="0.0927" y="-2" relative="1" as="geometry">
            <mxPoint y="-3.33" as="offset" />
          </mxGeometry>
        </mxCell>
        <mxCell id="LJ6ic7p3RvikOZII2ErR-101" value="" style="endArrow=classic;html=1;fontSize=15;fontStyle=1;spacing=2;" edge="1" parent="1">
          <mxGeometry width="50" height="50" relative="1" as="geometry">
            <mxPoint x="770.17" y="460" as="sourcePoint" />
            <mxPoint x="770" y="520" as="targetPoint" />
            <Array as="points">
              <mxPoint x="770.17" y="490" />
            </Array>
          </mxGeometry>
        </mxCell>
        <mxCell id="LJ6ic7p3RvikOZII2ErR-102" value="&lt;span style=&quot;color: rgba(0 , 0 , 0 , 0) ; font-family: monospace ; font-size: 0px ; background-color: rgb(248 , 249 , 250)&quot;&gt;%3CmxGraphModel%3E%3Croot%3E%3CmxCell%20id%3D%220%22%2F%3E%3CmxCell%20id%3D%221%22%20parent%3D%220%22%2F%3E%3CmxCell%20id%3D%222%22%20value%3D%22%22%20style%3D%22endArrow%3Dclassic%3Bhtml%3D1%3BfontSize%3D15%3B%22%20edge%3D%221%22%20parent%3D%221%22%3E%3CmxGeometry%20width%3D%2250%22%20height%3D%2250%22%20relative%3D%221%22%20as%3D%22geometry%22%3E%3CmxPoint%20x%3D%22930%22%20y%3D%22700.0000000000002%22%20as%3D%22sourcePoint%22%2F%3E%3CmxPoint%20x%3D%22980%22%20y%3D%22650.0000000000002%22%20as%3D%22targetPoint%22%2F%3E%3CArray%20as%3D%22points%22%3E%3CmxPoint%20x%3D%22950%22%20y%3D%22680%22%2F%3E%3C%2FArray%3E%3C%2FmxGeometry%3E%3C%2FmxCell%3E%3C%2Froot%3E%3C%2FmxGraphModel%3Edai&lt;/span&gt;" style="edgeLabel;html=1;align=center;verticalAlign=middle;resizable=0;points=[];fontSize=15;fontStyle=1;spacing=2;" vertex="1" connectable="0" parent="LJ6ic7p3RvikOZII2ErR-101">
          <mxGeometry x="0.1173" y="-2" relative="1" as="geometry">
            <mxPoint as="offset" />
          </mxGeometry>
        </mxCell>
        <mxCell id="LJ6ic7p3RvikOZII2ErR-103" value="５問目の問題出題" style="edgeLabel;html=1;align=center;verticalAlign=middle;resizable=0;points=[];fontSize=15;fontStyle=1;spacing=2;" vertex="1" connectable="0" parent="LJ6ic7p3RvikOZII2ErR-101">
          <mxGeometry x="0.0927" y="-2" relative="1" as="geometry">
            <mxPoint as="offset" />
          </mxGeometry>
        </mxCell>
        <mxCell id="LJ6ic7p3RvikOZII2ErR-107" value="バックエンド" style="text;html=1;align=center;verticalAlign=middle;whiteSpace=wrap;rounded=0;fontSize=15;fontStyle=1;spacing=2;" vertex="1" parent="1">
          <mxGeometry x="996" y="200" width="150" height="20" as="geometry" />
        </mxCell>
        <mxCell id="LJ6ic7p3RvikOZII2ErR-110" value="logout.php" style="rounded=1;whiteSpace=wrap;html=1;fontStyle=1;fontSize=15;fillColor=#f8cecc;strokeColor=#b85450;spacing=2;" vertex="1" parent="1">
          <mxGeometry x="6" y="310" width="120" height="60" as="geometry" />
        </mxCell>
        <mxCell id="LJ6ic7p3RvikOZII2ErR-117" value="&lt;span&gt;drawing.php&lt;/span&gt;" style="rounded=1;whiteSpace=wrap;html=1;fontStyle=1;fontSize=15;spacing=2;" vertex="1" parent="1">
          <mxGeometry x="666" y="520" width="210" height="40" as="geometry" />
        </mxCell>
        <mxCell id="LJ6ic7p3RvikOZII2ErR-118" value="&lt;span&gt;drawing.php&lt;/span&gt;" style="rounded=1;whiteSpace=wrap;html=1;fontStyle=1;fontSize=15;spacing=2;" vertex="1" parent="1">
          <mxGeometry x="666" y="420" width="210" height="40" as="geometry" />
        </mxCell>
        <mxCell id="LJ6ic7p3RvikOZII2ErR-119" value="&lt;span&gt;drawing.php&lt;/span&gt;" style="rounded=1;whiteSpace=wrap;html=1;fontStyle=1;fontSize=15;spacing=2;" vertex="1" parent="1">
          <mxGeometry x="666" y="320" width="210" height="40" as="geometry" />
        </mxCell>
        <mxCell id="LJ6ic7p3RvikOZII2ErR-120" value="&lt;span&gt;drawing.php&lt;/span&gt;" style="rounded=1;whiteSpace=wrap;html=1;fontStyle=1;fontSize=15;spacing=2;" vertex="1" parent="1">
          <mxGeometry x="666" y="220" width="210" height="40" as="geometry" />
        </mxCell>
        <mxCell id="LJ6ic7p3RvikOZII2ErR-121" value="drawing.php" style="rounded=1;whiteSpace=wrap;html=1;fontStyle=1;fontSize=15;spacing=2;" vertex="1" parent="1">
          <mxGeometry x="666" y="120" width="210" height="40" as="geometry" />
        </mxCell>
        <mxCell id="LJ6ic7p3RvikOZII2ErR-122" value="frontMatching.php" style="rounded=1;whiteSpace=wrap;html=1;fontStyle=1;fontSize=15;spacing=2;" vertex="1" parent="1">
          <mxGeometry x="416" y="250" width="160" height="60" as="geometry" />
        </mxCell>
        <mxCell id="LJ6ic7p3RvikOZII2ErR-123" value="&lt;span&gt;drawing.php&lt;/span&gt;" style="rounded=1;whiteSpace=wrap;html=1;fontStyle=1;fontSize=15;fillColor=#f8cecc;strokeColor=#b85450;spacing=2;" vertex="1" parent="1">
          <mxGeometry x="666" y="520" width="210" height="40" as="geometry" />
        </mxCell>
        <mxCell id="LJ6ic7p3RvikOZII2ErR-124" value="&lt;span&gt;drawing.php&lt;/span&gt;" style="rounded=1;whiteSpace=wrap;html=1;fontStyle=1;fontSize=15;fillColor=#f8cecc;strokeColor=#b85450;spacing=2;" vertex="1" parent="1">
          <mxGeometry x="666" y="420" width="210" height="40" as="geometry" />
        </mxCell>
        <mxCell id="LJ6ic7p3RvikOZII2ErR-125" value="&lt;span&gt;drawing.php&lt;/span&gt;" style="rounded=1;whiteSpace=wrap;html=1;fontStyle=1;fontSize=15;fillColor=#f8cecc;strokeColor=#b85450;spacing=2;" vertex="1" parent="1">
          <mxGeometry x="666" y="320" width="210" height="40" as="geometry" />
        </mxCell>
        <mxCell id="LJ6ic7p3RvikOZII2ErR-126" value="&lt;span&gt;drawing.php&lt;/span&gt;" style="rounded=1;whiteSpace=wrap;html=1;fontStyle=1;fontSize=15;fillColor=#f8cecc;strokeColor=#b85450;spacing=2;" vertex="1" parent="1">
          <mxGeometry x="666" y="220" width="210" height="40" as="geometry" />
        </mxCell>
        <mxCell id="LJ6ic7p3RvikOZII2ErR-127" value="drawing.php" style="rounded=1;whiteSpace=wrap;html=1;fontStyle=1;fontSize=15;fillColor=#f8cecc;strokeColor=#b85450;spacing=2;" vertex="1" parent="1">
          <mxGeometry x="666" y="120" width="210" height="40" as="geometry" />
        </mxCell>
        <mxCell id="LJ6ic7p3RvikOZII2ErR-128" value="frontMatching.php" style="rounded=1;whiteSpace=wrap;html=1;fontStyle=1;fontSize=15;fillColor=#f8cecc;strokeColor=#b85450;spacing=2;" vertex="1" parent="1">
          <mxGeometry x="416" y="250" width="160" height="60" as="geometry" />
        </mxCell>
      </root>
    </mxGraphModel>
  </diagram>
</mxfile>
